HIERARCHY
ROOT Hips
{
  OFFSET 91.2244 90.026 26.1335
  CHANNELS 6 Xposition Yposition Zposition Zrotation Xrotation Yrotation
  JOINT RightUpLeg
  {
    OFFSET -9.26543 -1.55198 -0.00276407
    CHANNELS 3 Zrotation Xrotation Yrotation
    JOINT RightLeg
    {
      OFFSET 0.00706465 -41.889 0.0798854
      CHANNELS 3 Zrotation Xrotation Yrotation
      JOINT RightFoot
      {
        OFFSET -1.51766 -41.6901 -0.263239
        CHANNELS 3 Zrotation Xrotation Yrotation
        End Site
        {
          OFFSET 0 -7.69 17.5
        }
      }
    }
  }
  JOINT LeftUpLeg
  {
    OFFSET 9.33035 -1.6331 0.002402
    CHANNELS 3 Zrotation Xrotation Yrotation
    JOINT LeftLeg
    {
      OFFSET 0.0774 -41.8788 0.006528
      CHANNELS 3 Zrotation Xrotation Yrotation
      JOINT LeftFoot
      {
        OFFSET 0.406189 -42.2791 -0.67832
        CHANNELS 3 Zrotation Xrotation Yrotation
        End Site
        {
          OFFSET 0 -7.69 17.5
        }
      }
    }
  }
  JOINT Spine
  {
    OFFSET 0.0210118 14.3125 0.030377
    CHANNELS 3 Zrotation Xrotation Yrotation
    JOINT Spine1
    {
      OFFSET -2.02627e-05 9.71981 0.0121962
      CHANNELS 3 Zrotation Xrotation Yrotation
      JOINT Spine2
      {
        OFFSET 0.023812 10.122 0.0180119
        CHANNELS 3 Zrotation Xrotation Yrotation
        JOINT Spine3
        {
          OFFSET 0.00443321 9.71861 0.0143853
          CHANNELS 3 Zrotation Xrotation Yrotation
          JOINT Neck
          {
            OFFSET -0.025003 10.3767 0.0233355
            CHANNELS 3 Zrotation Xrotation Yrotation
            JOINT Head
            {
              OFFSET -0.00975384 9.4764 0.045578
              CHANNELS 3 Zrotation Xrotation Yrotation
              End Site
              {
                OFFSET 0 15.95 0
              }
            }
          }
          JOINT RightShoulder
          {
            OFFSET -3.18407 6.9358 0.0313291
            CHANNELS 3 Zrotation Xrotation Yrotation
            JOINT RightArm
            {
              OFFSET -12.7601 0.0147069 0.0234973
              CHANNELS 3 Zrotation Xrotation Yrotation
              JOINT RightForeArm
              {
                OFFSET -26.4708 -0.032683 0.042111
                CHANNELS 3 Zrotation Xrotation Yrotation
                JOINT RightHand
                {
                  OFFSET -26.0234 -0.0283521 0.00388791
                  CHANNELS 3 Zrotation Xrotation Yrotation
                  JOINT RightHandThumb1
                  {
                    OFFSET -2.48905 0.190105 3.12053
                    CHANNELS 3 Zrotation Xrotation Yrotation
                    JOINT RightHandThumb2
                    {
                      OFFSET -3.68274 0 0
                      CHANNELS 3 Zrotation Xrotation Yrotation
                      JOINT RightHandThumb3
                      {
                        OFFSET -2.55832 0 0
                        CHANNELS 3 Zrotation Xrotation Yrotation
                        End Site
                        {
                          OFFSET -2.194 0 0
                        }
                      }
                    }
                  }
                  JOINT RightInHandIndex
                  {
                    OFFSET -3.22368 0.508421 1.97842
                    CHANNELS 3 Zrotation Xrotation Yrotation
                    JOINT RightHandIndex1
                    {
                      OFFSET -5.21684 -0.091368 0.999158
                      CHANNELS 3 Zrotation Xrotation Yrotation
                      JOINT RightHandIndex2
                      {
                        OFFSET -3.61937 0 0
                        CHANNELS 3 Zrotation Xrotation Yrotation
                        JOINT RightHandIndex3
                        {
                          OFFSET -2.0521 0 0
                          CHANNELS 3 Zrotation Xrotation Yrotation
                          End Site
                          {
                            OFFSET -1.805 0 0
                          }
                        }
                      }
                    }
                  }
                  JOINT RightInHandMiddle
                  {
                    OFFSET -3.38211 0.517263 0.756737
                    CHANNELS 3 Zrotation Xrotation Yrotation
                    JOINT RightHandMiddle1
                    {
                      OFFSET -5.17411 -0.084 0.313895
                      CHANNELS 3 Zrotation Xrotation Yrotation
                      JOINT RightHandMiddle2
                      {
                        OFFSET -3.94947 0 0
                        CHANNELS 3 Zrotation Xrotation Yrotation
                        JOINT RightHandMiddle3
                        {
                          OFFSET -2.47579 0 0
                          CHANNELS 3 Zrotation Xrotation Yrotation
                          End Site
                          {
                            OFFSET -1.975 0 0
                          }
                        }
                      }
                    }
                  }
                  JOINT RightInHandRing
                  {
                    OFFSET -3.36516 0.537895 -0.128947
                    CHANNELS 3 Zrotation Xrotation Yrotation
                    JOINT RightHandRing1
                    {
                      OFFSET -4.63474 -0.022105 -0.478947
                      CHANNELS 3 Zrotation Xrotation Yrotation
                      JOINT RightHandRing2
                      {
                        OFFSET -3.44238 0 0
                        CHANNELS 3 Zrotation Xrotation Yrotation
                        JOINT RightHandRing3
                        {
                          OFFSET -2.3881 0 0
                          CHANNELS 3 Zrotation Xrotation Yrotation
                          End Site
                          {
                            OFFSET -1.857 0 0
                          }
                        }
                      }
                    }
                  }
                  JOINT RightInHandPinky
                  {
                    OFFSET -3.16105 0.469368 -1.20179
                    CHANNELS 3 Zrotation Xrotation Yrotation
                    JOINT RightHandPinky1
                    {
                      OFFSET -4.14105 -0.022105 -1.09053
                      CHANNELS 3 Zrotation Xrotation Yrotation
                      JOINT RightHandPinky2
                      {
                        OFFSET -2.75653 0 0
                        CHANNELS 3 Zrotation Xrotation Yrotation
                        JOINT RightHandPinky3
                        {
                          OFFSET -1.74189 0 0
                          CHANNELS 3 Zrotation Xrotation Yrotation
                          End Site
                          {
                            OFFSET -1.645 0 0
                          }
                        }
                      }
                    }
                  }
                }
              }
            }
          }
          JOINT LeftShoulder
          {
            OFFSET 3.21192 6.92101 0.01407
            CHANNELS 3 Zrotation Xrotation Yrotation
            JOINT LeftArm
            {
              OFFSET 12.7303 -0.00466279 0.011464
              CHANNELS 3 Zrotation Xrotation Yrotation
              JOINT LeftForeArm
              {
                OFFSET 26.497 -0.127446 0.0273404
                CHANNELS 3 Zrotation Xrotation Yrotation
                JOINT LeftHand
                {
                  OFFSET 26.0093 -0.0453415 -0.0774742
                  CHANNELS 3 Zrotation Xrotation Yrotation
                  JOINT LeftHandThumb1
                  {
                    OFFSET 2.48905 0.190105 3.12053
                    CHANNELS 3 Zrotation Xrotation Yrotation
                    JOINT LeftHandThumb2
                    {
                      OFFSET 3.68274 0 0
                      CHANNELS 3 Zrotation Xrotation Yrotation
                      JOINT LeftHandThumb3
                      {
                        OFFSET 2.55832 0 0
                        CHANNELS 3 Zrotation Xrotation Yrotation
                        End Site
                        {
                          OFFSET 2.194 0 0
                        }
                      }
                    }
                  }
                  JOINT LeftInHandIndex
                  {
                    OFFSET 3.22368 0.508421 1.97842
                    CHANNELS 3 Zrotation Xrotation Yrotation
                    JOINT LeftHandIndex1
                    {
                      OFFSET 5.21684 -0.091368 0.999158
                      CHANNELS 3 Zrotation Xrotation Yrotation
                      JOINT LeftHandIndex2
                      {
                        OFFSET 3.61937 0 0
                        CHANNELS 3 Zrotation Xrotation Yrotation
                        JOINT LeftHandIndex3
                        {
                          OFFSET 2.0521 0 0
                          CHANNELS 3 Zrotation Xrotation Yrotation
                          End Site
                          {
                            OFFSET 1.805 0 0
                          }
                        }
                      }
                    }
                  }
                  JOINT LeftInHandMiddle
                  {
                    OFFSET 3.38211 0.517263 0.756737
                    CHANNELS 3 Zrotation Xrotation Yrotation
                    JOINT LeftHandMiddle1
                    {
                      OFFSET 5.17411 -0.084 0.313895
                      CHANNELS 3 Zrotation Xrotation Yrotation
                      JOINT LeftHandMiddle2
                      {
                        OFFSET 3.94947 0 0
                        CHANNELS 3 Zrotation Xrotation Yrotation
                        JOINT LeftHandMiddle3
                        {
                          OFFSET 2.47579 0 0
                          CHANNELS 3 Zrotation Xrotation Yrotation
                          End Site
                          {
                            OFFSET 1.975 0 0
                          }
                        }
                      }
                    }
                  }
                  JOINT LeftInHandRing
                  {
                    OFFSET 3.36516 0.537895 -0.128947
                    CHANNELS 3 Zrotation Xrotation Yrotation
                    JOINT LeftHandRing1
                    {
                      OFFSET 4.63474 -0.022105 -0.478947
                      CHANNELS 3 Zrotation Xrotation Yrotation
                      JOINT LeftHandRing2
                      {
                        OFFSET 3.44238 0 0
                        CHANNELS 3 Zrotation Xrotation Yrotation
                        JOINT LeftHandRing3
                        {
                          OFFSET 2.3881 0 0
                          CHANNELS 3 Zrotation Xrotation Yrotation
                          End Site
                          {
                            OFFSET 1.857 0 0
                          }
                        }
                      }
                    }
                  }
                  JOINT LeftInHandPinky
                  {
                    OFFSET 3.16105 0.469368 -1.20179
                    CHANNELS 3 Zrotation Xrotation Yrotation
                    JOINT LeftHandPinky1
                    {
                      OFFSET 4.14105 -0.022105 -1.09053
                      CHANNELS 3 Zrotation Xrotation Yrotation
                      JOINT LeftHandPinky2
                      {
                        OFFSET 2.75653 0 0
                        CHANNELS 3 Zrotation Xrotation Yrotation
                        JOINT LeftHandPinky3
                        {
                          OFFSET 1.74189 0 0
                          CHANNELS 3 Zrotation Xrotation Yrotation
                          End Site
                          {
                            OFFSET 1.645 0 0
                          }
                        }
                      }
                    }
                  }
                }
              }
            }
          }
        }
      }
    }
  }
}
MOTION
Frames: 3
Frame Time: 0.00833333
6.001303975464356881e+02 -9.771415994621773793e-02 -2.888068969992614865e-01 -1.200606486120722849e+00 -1.424125521859634369e-01 -3.990142023806130811e-01 -1.249342452310620466e+00 5.981761623260950511e-01 -1.423323618594771522e+00 -1.930839031812709161e-01 -5.833472432345067002e-03 3.490923665167058876e-01 6.549901235781527276e-02 7.486662871025385746e-01 6.695255307036287462e-01 -2.406846628609163208e+00 1.523359498346913865e+00 -1.822247623753379342e+00 -1.294184571560508035e+00 -4.099002644298831988e-01 5.957763268507832999e-01 3.915022242270854019e-02 -2.234970658151966549e-01 -7.365783750114401895e-02 -1.392011137900188045e+00 -2.254424072085730799e-02 1.746405557976299372e+00 -2.943676780890001621e-01 -6.999016652366454871e-02 4.284715391455019007e-01 -5.010675095703590598e-01 -1.481468809870802594e-01 7.326413337603793208e-01 7.491823999945924906e-02 -1.134706305811663540e-01 -1.459037980514149846e-01 2.029222638984380378e-01 -1.112480978998253711e-01 8.053928473953454736e-03 1.205395275648984299e+00 -1.919550333939213482e+00 -2.505267678117479857e+00 8.130999096935217496e-01 1.079424102770272009e+00 1.586944669125767371e+00 -9.872672036403882245e+00 -5.433968415390904916e+00 5.030367553262991009e+00 3.588705333762069571e+00 9.690997985124438330e+00 -4.924545967859802253e+00 3.772625945945698778e+00 4.747426113015444038e+00 -5.564485925590310078e-01 0.000000000000000000e+00 0.000000000000000000e+00 0.000000000000000000e+00 -2.630228840918944815e-15 -8.374590357980338592e-16 0.000000000000000000e+00 1.770887905974102653e-15 4.058262520162410820e-15 0.000000000000000000e+00 -4.591822699826161525e-16 3.390709724599140606e-15 -3.960762519840328668e-15 0.000000000000000000e+00 0.000000000000000000e+00 0.000000000000000000e+00 0.000000000000000000e+00 -6.016585707507909313e-16 8.639475762130282286e-15 0.000000000000000000e+00 9.027375835372118639e-16 1.451723321122833417e-14 -4.591822699826161525e-16 3.390709724599140606e-15 -3.960762519840328668e-15 0.000000000000000000e+00 -1.653563991022476209e-15 -2.007040938214126785e-15 0.000000000000000000e+00 7.611429869978442140e-16 6.219418656516447673e-15 0.000000000000000000e+00 2.796591859451171335e-15 1.918598965567727974e-14 -4.591822699826161525e-16 3.390709724599140606e-15 -3.960762519840328668e-15 0.000000000000000000e+00 0.000000000000000000e+00 0.000000000000000000e+00 0.000000000000000000e+00 -1.590414297454567092e-15 1.711190206876804762e-14 0.000000000000000000e+00 1.289493267835068057e-15 1.923794437065722011e-14 -4.591822699826161525e-16 3.390709724599140606e-15 -3.960762519840328668e-15 0.000000000000000000e+00 0.000000000000000000e+00 0.000000000000000000e+00 0.000000000000000000e+00 2.923146541312323376e-15 1.714846498304465923e-14 0.000000000000000000e+00 3.321670701837870848e-15 1.175438328545081439e-14 -2.178807965813807646e-01 -8.517735946539316538e-01 1.016564424488366480e+00 -2.248807402903667985e+00 -4.479845876317326336e+00 -1.117511254262671061e+00 -1.603786810477926750e+01 -1.601291985899248871e-01 -1.850147304700239559e+01 -3.283064156004181111e+00 4.928495032456287284e+00 -2.359415927511795186e+00 0.000000000000000000e+00 0.000000000000000000e+00 0.000000000000000000e+00 1.226803995963615888e-15 8.652376889480771122e-16 0.000000000000000000e+00 -6.994671665980844621e-15 7.337621175358019876e-16 0.000000000000000000e+00 1.965864612038573086e-15 2.036893287276575315e-15 -7.515042388353918362e-16 0.000000000000000000e+00 0.000000000000000000e+00 0.000000000000000000e+00 0.000000000000000000e+00 5.625084203482911142e-15 -1.629331338979779668e-14 0.000000000000000000e+00 1.482592942627998953e-15 -1.448927327449168236e-14 1.965864612038573086e-15 2.036893287276575315e-15 -7.515042388353918362e-16 0.000000000000000000e+00 2.443627460752837467e-15 -1.996584055362550545e-14 0.000000000000000000e+00 2.763513470366181718e-15 -1.850233910800654866e-14 0.000000000000000000e+00 6.027228884014490396e-15 -9.266513610539831042e-15 1.965864612038573086e-15 2.036893287276575315e-15 -7.515042388353918362e-16 0.000000000000000000e+00 0.000000000000000000e+00 0.000000000000000000e+00 0.000000000000000000e+00 6.478681276319244790e-15 -1.988175752870616744e-14 0.000000000000000000e+00 3.056163571945830434e-15 -1.116110336411254021e-14 1.965864612038573086e-15 2.036893287276575315e-15 -7.515042388353918362e-16 0.000000000000000000e+00 0.000000000000000000e+00 0.000000000000000000e+00 0.000000000000000000e+00 1.547220375977475039e-15 -1.021831124442104074e-14 0.000000000000000000e+00 1.621689206611486413e-16 -4.192476489407027930e-15
6.001016536548825115e+02 -1.043140755886925453e-01 -2.984241639763435261e-01 -1.254947009462519913e+00 -1.789540387700885860e-01 -4.774793477308055256e-01 -1.222075425640671176e+00 6.415070538240938980e-01 -1.373984182253081610e+00 -1.938825631959778528e-01 9.653769143632608823e-03 3.598668691915044571e-01 8.011103880680206513e-02 7.658548632205458562e-01 7.334842459718566854e-01 -2.510604490003021105e+00 1.649241251485597193e+00 -1.928061465075478598e+00 -1.317969640691992295e+00 -3.979829290038386369e-01 6.341599398135119303e-01 3.044371320531430447e-02 -2.888236771619726584e-01 -3.475835678551411623e-02 -1.445761890547730300e+00 -5.036808337260377522e-02 1.707821561918546394e+00 -3.076278672138849091e-01 -8.326309203378404189e-02 4.151663040240098912e-01 -5.224001444771187996e-01 -1.657287598903001702e-01 7.089828546501626416e-01 7.351411986215714012e-02 -1.157537134333145451e-01 -1.364882250873138414e-01 2.135037634252432703e-01 -1.382685970574798473e-01 -1.603177802048976752e-01 1.126153479068865426e+00 -1.886666204396464597e+00 -2.161847237644892950e+00 8.383735797778584242e-01 1.066608425117638648e+00 1.589361403690134011e+00 -1.034878355003938744e+01 -5.926136878962986465e+00 5.019001278420780032e+00 4.179204934412921624e+00 1.008257705208023047e+01 -4.329110142118605786e+00 3.638948973994646785e+00 5.137152003804727585e+00 -5.756995796865072013e-01 0.000000000000000000e+00 0.000000000000000000e+00 0.000000000000000000e+00 -2.945194736201249357e-15 -8.476684353405267116e-16 0.000000000000000000e+00 2.157371731221372310e-15 4.226166860636908519e-15 0.000000000000000000e+00 -5.438504205168790943e-16 3.583019473936755609e-15 -3.562571754152459977e-15 0.000000000000000000e+00 0.000000000000000000e+00 0.000000000000000000e+00 0.000000000000000000e+00 -1.661164937654789751e-15 9.086254936065355449e-15 0.000000000000000000e+00 -1.113287290564279982e-16 1.449155005663549420e-14 -5.438504205168790943e-16 3.583019473936755609e-15 -3.562571754152459977e-15 0.000000000000000000e+00 -6.238426350830950727e-16 -2.367857303930866159e-15 0.000000000000000000e+00 4.933906452806232635e-16 5.913941756530747994e-15 0.000000000000000000e+00 2.437458288897302895e-15 2.018294646427152893e-14 -5.438504205168790943e-16 3.583019473936755609e-15 -3.562571754152459977e-15 0.000000000000000000e+00 0.000000000000000000e+00 0.000000000000000000e+00 0.000000000000000000e+00 -1.884873907253096678e-15 1.767551144873850302e-14 0.000000000000000000e+00 2.017156955070601059e-15 1.925318495023417109e-14 -5.438504205168790943e-16 3.583019473936755609e-15 -3.562571754152459977e-15 0.000000000000000000e+00 0.000000000000000000e+00 0.000000000000000000e+00 0.000000000000000000e+00 3.321817055387851102e-15 1.670395984154640186e-14 0.000000000000000000e+00 3.627366681369018619e-15 1.141734769469519406e-14 -2.138462451939432685e-01 -8.952871222522900130e-01 1.074817425303717044e+00 -1.945443119915563068e+00 -4.609328846422577897e+00 -1.682199424382205821e+00 -1.588431264300395540e+01 3.037524304328125258e-01 -1.879176580181822942e+01 -2.769580904231715657e+00 5.702055324658807045e+00 -2.189286710422694515e+00 0.000000000000000000e+00 0.000000000000000000e+00 0.000000000000000000e+00 1.922907424890376725e-15 3.461285588328140547e-16 0.000000000000000000e+00 -8.200381425342345797e-15 5.320099857455806863e-16 0.000000000000000000e+00 2.389779012615145424e-15 2.163231522628525135e-15 -9.726835318865859170e-16 0.000000000000000000e+00 0.000000000000000000e+00 0.000000000000000000e+00 0.000000000000000000e+00 5.891860294660556506e-15 -1.859499752657213182e-14 0.000000000000000000e+00 1.491544282590514090e-15 -1.579695271132201487e-14 2.389779012615145424e-15 2.163231522628525135e-15 -9.726835318865859170e-16 0.000000000000000000e+00 2.333002542875145348e-15 -2.258488862142206724e-14 0.000000000000000000e+00 2.931348618204334112e-15 -2.058313086058986945e-14 0.000000000000000000e+00 6.190917450671304550e-15 -1.012135681893026737e-14 2.389779012615145424e-15 2.163231522628525135e-15 -9.726835318865859170e-16 0.000000000000000000e+00 0.000000000000000000e+00 0.000000000000000000e+00 0.000000000000000000e+00 7.037797952421902049e-15 -2.219032297768581017e-14 0.000000000000000000e+00 3.369966928534180053e-15 -1.252210744550868111e-14 2.389779012615145424e-15 2.163231522628525135e-15 -9.726835318865859170e-16 0.000000000000000000e+00 0.000000000000000000e+00 0.000000000000000000e+00 0.000000000000000000e+00 1.737455712833049598e-15 -1.199129718276253837e-14 0.000000000000000000e+00 1.097887713360823554e-16 -5.035064334452398224e-15
6.000720197678209615e+02 -1.108620533001489494e-01 -3.076334797926303932e-01 -1.303811793524900509e+00 -2.188199366154848224e-01 -5.605466384288184667e-01 -1.184663226540458636e+00 6.803091430535018747e-01 -1.318230491437672125e+00 -1.935177341715745014e-01 2.661056786055062545e-02 3.696070026272954556e-01 9.305067756542377555e-02 7.817031750418182989e-01 8.031077148738591243e-01 -2.600255825776131680e+00 1.774672807621390902e+00 -2.028164688137970018e+00 -1.342419650280127774e+00 -3.837344747688600233e-01 6.763724651549932743e-01 2.217537574214414192e-02 -3.549625494776436074e-01 7.807742770959339232e-03 -1.496433975635389491e+00 -7.941996456646133185e-02 1.676043940628298756e+00 -3.200716241279861762e-01 -9.635207721428563910e-02 4.036236980038553912e-01 -5.425100385469439068e-01 -1.827283459755566775e-01 6.879413242656498007e-01 7.204806156172169351e-02 -1.176438693451729578e-01 -1.270914020054154103e-01 2.232842330506064343e-01 -1.648305359131144177e-01 -3.512611480475607562e-01 1.041540554765147952e+00 -1.850278656445532244e+00 -1.798103538843973226e+00 8.546158567727732969e-01 1.054355490773088544e+00 1.564777159806763907e+00 -1.080490071178691558e+01 -6.415050248473598948e+00 4.997070947916562034e+00 4.783025432965495760e+00 1.047597973069703592e+01 -3.706971016509025496e+00 3.496284684660578179e+00 5.520152892411920753e+00 -5.799390445363887814e-01 0.000000000000000000e+00 0.000000000000000000e+00 0.000000000000000000e+00 -3.266305972902337160e-15 -8.211193942471395802e-16 0.000000000000000000e+00 2.684081638067291692e-15 4.340931829455478289e-15 0.000000000000000000e+00 -6.283563441310892234e-16 3.664072537993058906e-15 -3.005594834480243917e-15 0.000000000000000000e+00 0.000000000000000000e+00 0.000000000000000000e+00 0.000000000000000000e+00 -2.765031113372324838e-15 9.321695466708324062e-15 0.000000000000000000e+00 -1.072649769227871059e-15 1.424177246187659028e-14 -6.283563441310892234e-16 3.664072537993058906e-15 -3.005594834480243917e-15 0.000000000000000000e+00 5.550349520109004840e-16 -2.780585830364796546e-15 0.000000000000000000e+00 3.381820173552662958e-16 5.608165906892322420e-15 0.000000000000000000e+00 2.086269625656025747e-15 2.099657603310924952e-14 -6.283563441310892234e-16 3.664072537993058906e-15 -3.005594834480243917e-15 0.000000000000000000e+00 0.000000000000000000e+00 0.000000000000000000e+00 0.000000000000000000e+00 -2.111020285809815499e-15 1.806899711098212678e-14 0.000000000000000000e+00 2.831633507280769227e-15 1.908148089325588379e-14 -6.283563441310892234e-16 3.664072537993058906e-15 -3.005594834480243917e-15 0.000000000000000000e+00 0.000000000000000000e+00 0.000000000000000000e+00 0.000000000000000000e+00 3.802399785609256662e-15 1.599554742606681509e-14 0.000000000000000000e+00 3.824631312525144298e-15 1.096518221407880454e-14 -2.101219831861069753e-01 -9.408062665081230458e-01 1.108283926443794920e+00 -1.622511899100043786e+00 -4.735101023462921610e+00 -2.270693496358624941e+00 -1.569343177042012272e+01 7.832993888749717470e-01 -1.904508561280803391e+01 -2.223275625471869077e+00 6.499718377594719598e+00 -1.990868107625390460e+00 0.000000000000000000e+00 0.000000000000000000e+00 0.000000000000000000e+00 2.576949589518671263e-15 -2.169182840146844248e-16 0.000000000000000000e+00 -9.547717811845388688e-15 2.652606634051998674e-16 0.000000000000000000e+00 2.850451123296474002e-15 2.263468008438412013e-15 -1.230373149518008095e-15 0.000000000000000000e+00 0.000000000000000000e+00 0.000000000000000000e+00 0.000000000000000000e+00 6.120881466785116408e-15 -2.089934953103140721e-14 0.000000000000000000e+00 1.446727479513403578e-15 -1.707735451322069157e-14 2.850451123296474002e-15 2.263468008438412013e-15 -1.230373149518008095e-15 0.000000000000000000e+00 2.222165605651341130e-15 -2.532396934212830384e-14 0.000000000000000000e+00 3.136785905681511317e-15 -2.274462782492735396e-14 0.000000000000000000e+00 6.250452654456075619e-15 -1.092764714584372668e-14 2.850451123296474002e-15 2.263468008438412013e-15 -1.230373149518008095e-15 0.000000000000000000e+00 0.000000000000000000e+00 0.000000000000000000e+00 0.000000000000000000e+00 7.563488732998379438e-15 -2.449910022566287352e-14 0.000000000000000000e+00 3.685339165782697731e-15 -1.389591999010432567e-14 2.850451123296474002e-15 2.263468008438412013e-15 -1.230373149518008095e-15 0.000000000000000000e+00 0.000000000000000000e+00 0.000000000000000000e+00 0.000000000000000000e+00 1.943650907170700047e-15 -1.377699829818897883e-14 0.000000000000000000e+00 7.238675793920529378e-17 -5.821751609595645767e-15
